<?xml version="1.0" encoding="UTF-8" standalone="no"?>
<!-- Uploaded to: SVG Repo, www.svgrepo.com, Generator: SVG Repo Mixer Tools -->

<svg
   width="16"
   height="16"
   viewBox="0 0 10.24 10.24"
   version="1.1"
   id="svg1"
   sodipodi:docname="favicon.svg"
   inkscape:version="1.4.2 (1:1.4.2+202505120737+ebf0e940d0)"
   xmlns:inkscape="http://www.inkscape.org/namespaces/inkscape"
   xmlns:sodipodi="http://sodipodi.sourceforge.net/DTD/sodipodi-0.dtd"
   xmlns="http://www.w3.org/2000/svg"
   xmlns:svg="http://www.w3.org/2000/svg">
  <defs
     id="defs1" />
  <sodipodi:namedview
     id="namedview1"
     pagecolor="#505050"
     bordercolor="#eeeeee"
     borderopacity="1"
     inkscape:showpageshadow="0"
     inkscape:pageopacity="0"
     inkscape:pagecheckerboard="0"
     inkscape:deskcolor="#505050"
     inkscape:zoom="33.08"
     inkscape:cx="5.4866989"
     inkscape:cy="6.3331318"
     inkscape:window-width="1920"
     inkscape:window-height="1012"
     inkscape:window-x="0"
     inkscape:window-y="0"
     inkscape:window-maximized="1"
     inkscape:current-layer="svg1" />
  <path
     fill="#000000"
     d="M 5.3114333,0.24885164 3.4435118,2.1167732 V 2.5506525 L 5.7453126,0.24885164 Z m 0.9100529,0.08169 L 3.5252068,3.0268211 7.2131694,6.7147614 9.9094489,4.0185267 6.2214639,0.33058638 Z M 9.9911687,4.4946779 7.6893207,6.7964787 H 8.1232 L 9.991124,4.9285572 V 4.4946779 Z M 4.7338856,4.7933013 4.5169323,5.0102547 5.2297359,5.7230806 5.4466892,5.5061273 Z M 4.2380328,5.2891566 3.7224337,5.8047309 H 4.753607 Z M 3.3279799,6.1991871 2.7307082,6.7964787 H 4.156313 L 4.753607,6.1991871 Z M 2.3362518,7.190935 1.7390025,7.7881843 H 3.1646074 L 3.7618592,7.190935 Z M 1.7390025,8.1826406 2.2545768,8.6982148 2.7701536,8.1826406 Z M 1.2628289,8.2643306 1.0459253,8.481259 1.7587265,9.1940626 1.9756301,8.977159 1.2628264,8.2643554 Z M 0.4132803,8.6784884 0.24883133,9.1718229 1.0681576,9.9911484 1.5614921,9.8266994 V 9.5546563 L 0.68527616,8.6784834 Z"
     id="path1"
     style="fill:#ffffff;fill-opacity:1;stroke-width:0.0219142" />
</svg>
